<?xml version="1.0" standalone="no"?><!-- Generator: Gravit.io --><svg xmlns="http://www.w3.org/2000/svg" xmlns:xlink="http://www.w3.org/1999/xlink" style="isolation:isolate" viewBox="0 0 182.8 182.7" width="182.8" height="182.7"><g id="Group"><path d=" M 91.4 182.7 C 41 182.7 0 141.7 0 91.4 C 0 41.1 41 0 91.4 0 C 141.8 0 182.8 41 182.8 91.4 C 182.8 141.8 141.7 182.7 91.4 182.7 Z  M 91.4 31.9 C 58.6 31.9 31.9 58.6 31.9 91.4 C 31.9 124.2 58.6 150.9 91.4 150.9 C 124.2 150.9 150.9 124.2 150.9 91.4 C 150.9 58.6 124.2 31.9 91.4 31.9 Z " fill="rgb(255,255,255)"/><path d=" M 120.8 87.3 C 107.8 87.3 97.3 76.8 97.3 63.8 C 97.3 60.3 98.1 57 99.5 54 C 96.9 53.4 94.1 53.1 91.3 53.1 C 70.2 53.1 53.1 70.2 53.1 91.3 C 53.1 112.4 70.2 129.5 91.3 129.5 C 112.4 129.5 129.5 112.4 129.5 91.3 C 129.5 89.4 129.4 87.5 129.1 85.7 C 126.6 86.7 123.8 87.3 120.8 87.3 Z " fill="rgb(46,44,76)"/></g></svg>