<svg xmlns="http://www.w3.org/2000/svg" width="103" height="84.5" viewBox="-443 -47.6 103 84.5"><path fill="#2E2C4C" d="M-439 18.4h46.2v4c0 .7.6 1.3 1.3 1.3s1.3-.6 1.3-1.3v-4h46.2c2.2 0 4-1.8 4-4v-58c0-2.2-1.8-4-4-4h-95c-2.2 0-4 1.8-4 4v58c0 2.2 1.8 4 4 4m-1.4-62c0-.7.6-1.3 1.3-1.3h95c.7 0 1.3.6 1.3 1.3v58c0 .7-.6 1.3-1.3 1.3H-439c-.7 0-1.3-.6-1.3-1.3v-58h-.1z"/><path fill="#2E2C4C" d="M-433.8 10.4h84.4c.7 0 1.3-.6 1.3-1.3v-47.5c0-.7-.6-1.3-1.3-1.3h-84.4c-.7 0-1.3.6-1.3 1.3V9.1c0 .8.6 1.3 1.3 1.3m1.4-47.4h81.8V7.9h-81.8V-37zM-406.1 26.3c-3 0-5.3 2.3-5.3 5.3v4c0 .7.6 1.3 1.3 1.3h36.9c.7 0 1.3-.6 1.3-1.3v-3.8c0-3.1-2.3-5.5-5.3-5.5h-28.9zm31.7 5.4v2.4h-34.3v-2.6c0-1.6 1.1-2.6 2.6-2.6h29c1.6 0 2.7 1.2 2.7 2.8"/><g fill="none" stroke="#2E2C4C" stroke-linejoin="round" stroke-miterlimit="10"><path stroke-width="2.7" d="M-422.3-29.3h62.5V-15h-62.5z"/><circle stroke-width="2.7" cx="-418.4" cy="-4.9" r="4.9"/><circle stroke-width="2.7" cx="-400.5" cy="-4.9" r="4.9"/><g stroke-linecap="round"><path stroke-width="2.538" d="M-386.1-7.2h25"/><path stroke-width="2.7" d="M-386-2.7h14.6"/></g></g></svg>