<svg xmlns="http://www.w3.org/2000/svg" width="103" height="84.5" viewBox="-315.8 -47.6 103 84.5"><g fill="#2E2C4C"><path d="M-311.8 18.4h46.2v4c0 .7.6 1.3 1.3 1.3s1.3-.6 1.3-1.3v-4h46.2c2.2 0 4-1.8 4-4v-58c0-2.2-1.8-4-4-4h-95c-2.2 0-4 1.8-4 4v58c0 2.2 1.8 4 4 4m-1.4-62c0-.7.6-1.3 1.3-1.3h95c.7 0 1.3.6 1.3 1.3v58c0 .7-.6 1.3-1.3 1.3h-94.9c-.7 0-1.3-.6-1.3-1.3v-58h-.1z"/><path d="M-306.6 10.4h84.4c.7 0 1.3-.6 1.3-1.3v-47.5c0-.7-.6-1.3-1.3-1.3h-84.4c-.7 0-1.3.6-1.3 1.3V9.1c0 .8.6 1.3 1.3 1.3m1.4-47.4h81.8V7.9h-81.8V-37zM-278.9 26.3c-3 0-5.3 2.3-5.3 5.3v4c0 .7.6 1.3 1.3 1.3h36.9c.7 0 1.3-.6 1.3-1.3v-3.8c0-3.1-2.3-5.5-5.3-5.5h-28.9zm31.7 5.4v2.4h-34.3v-2.6c0-1.6 1.1-2.6 2.6-2.6h29c1.6 0 2.7 1.2 2.7 2.8"/></g><g fill="none" stroke="#2E2C4C" stroke-width="2.7" stroke-linecap="round" stroke-linejoin="round" stroke-miterlimit="10"><path d="M-274.8-7.5l-8.8-7 8.8-7M-253.8-21.5l8.8 7-8.8 7M-259-24l-10.7 18.6"/></g></svg>