<svg xmlns="http://www.w3.org/2000/svg" width="106" height="84.5" viewBox="-189.3 -47.6 106 84.5"><g fill="#2E2C4C"><path d="M-87.3-47.6h-95c-2.2 0-4 1.8-4 4v41.5h2.7v-41.5h-.1c0-.7.6-1.3 1.3-1.3h95c.7 0 1.3.6 1.3 1.3v58c0 .7-.6 1.3-1.3 1.3h-45.3v2.7h45.4c2.2 0 4-1.8 4-4v-58c0-2.2-1.8-4-4-4z"/><path d="M-92.7-39.7h-84.4c-.7 0-1.3.6-1.3 1.3v36h2.7V-37h81.8V7.9H-132l-1.4 2.5h40.7c.7 0 1.3-.6 1.3-1.3v-47.5c0-.7-.6-1.3-1.3-1.3zM-117.7 31.7v2.4h-16.4l-1.4 2.8h19c.7 0 1.3-.6 1.3-1.3v-3.8c0-3.1-2.3-5.5-5.3-5.5h-12.2v2.6h12.3c1.6 0 2.7 1.2 2.7 2.8"/></g><path fill="#2E2C4C" d="M-135.7 36.9h-33.1v-2.7h33.1c.9 0 1.6-.7 1.6-1.6V-12c0-.9-.7-1.6-1.6-1.6h-33.1c-.9 0-1.6.7-1.6 1.6v9.9h-2.7V-12c0-2.4 2-4.4 4.4-4.4h33.1c2.4 0 4.4 2 4.4 4.4v44.5c-.1 2.4-2.1 4.4-4.5 4.4z"/><path fill="none" stroke="#2E2C4C" stroke-width="2.7" stroke-miterlimit="10" d="M-139.3 26.5h-26c-.3 0-.5-.2-.5-.5V-8.3c0-.3.2-.5.5-.5h26c.3 0 .5.2.5.5V26c0 .3-.2.5-.5.5z"/><circle fill="#2E2C4C" cx="-152.2" cy="31.5" r="1.4"/><g><path fill="none" stroke="#2E2C4C" stroke-width="2.7" stroke-miterlimit="10" d="M-168.9 35.5h-16c-1.7 0-3-1.3-3-3V.8c0-1.7 1.3-3 3-3h16c1.7 0 3 1.3 3 3v31.7c0 1.7-1.4 3-3 3z"/><path fill="none" stroke="#2E2C4C" stroke-width="2.7" stroke-miterlimit="10" d="M-171.1 28.4h-11.6c-.3 0-.5-.2-.5-.5V6.5c0-.3.2-.5.5-.5h11.6c.3 0 .5.2.5.5v21.4c0 .3-.3.5-.5.5z"/><circle fill="#2E2C4C" cx="-176.9" cy="32.2" r="1.4"/><path fill="none" stroke="#2E2C4C" stroke-width="2.7" stroke-linecap="round" stroke-miterlimit="10" d="M-179.4 2h4.9"/></g></svg>